<svg id="visual" viewBox="0 0 900 600" width="900" height="600" xmlns="http://www.w3.org/2000/svg" xmlns:xlink="http://www.w3.org/1999/xlink" version="1.1"><rect x="0" y="0" width="900" height="600" fill="#ffffff"></rect><g transform="translate(444.1742026515519 264.4168424957147)"><path d="M111.8 -150.5C157.3 -144.7 215.1 -134.7 223.3 -105.3C231.4 -76 190 -27.3 165.3 11.5C140.6 50.2 132.6 79.2 116.4 104.5C100.1 129.9 75.6 151.8 42 177.4C8.4 203.1 -34.3 232.5 -78.2 234.2C-122.1 236 -167.2 210 -185.1 170.7C-202.9 131.5 -193.5 79 -198 30.1C-202.5 -18.8 -220.9 -64 -208.4 -96.7C-195.9 -129.5 -152.6 -149.7 -112.7 -158C-72.8 -166.3 -36.4 -162.6 -1.6 -160.1C33.2 -157.6 66.3 -156.2 111.8 -150.5" fill="#BB004B"></path></g></svg>